<svg width="13" height="14" viewBox="0 0 13 14" fill="none" xmlns="http://www.w3.org/2000/svg">
<path d="M6.50632 10.2679C6.9326 10.2679 7.34142 10.1326 7.64284 9.89193C7.94427 9.65123 8.11361 9.32478 8.11361 8.98438C8.11361 8.64397 7.94427 8.31752 7.64284 8.07682C7.34142 7.83612 6.9326 7.70089 6.50632 7.70089C6.08003 7.70089 5.67121 7.83612 5.36979 8.07682C5.06836 8.31752 4.89902 8.64397 4.89902 8.98438C4.89902 9.32478 5.06836 9.65123 5.36979 9.89193C5.67121 10.1326 6.08003 10.2679 6.50632 10.2679ZM11.3282 4.49219C11.7545 4.49219 12.1633 4.62741 12.4647 4.86811C12.7661 5.10881 12.9355 5.43527 12.9355 5.77567V12.1931C12.9355 12.5335 12.7661 12.8599 12.4647 13.1006C12.1633 13.3413 11.7545 13.4766 11.3282 13.4766H1.68444C1.25816 13.4766 0.849339 13.3413 0.547913 13.1006C0.246488 12.8599 0.0771484 12.5335 0.0771484 12.1931V5.77567C0.0771484 5.43527 0.246488 5.10881 0.547913 4.86811C0.849339 4.62741 1.25816 4.49219 1.68444 4.49219H2.48809V3.20871C2.48809 2.3577 2.91143 1.54156 3.665 0.939808C4.41856 0.338059 5.44061 0 6.50632 0C7.034 0 7.55651 0.0829956 8.04402 0.244248C8.53154 0.405501 8.97451 0.641852 9.34763 0.939808C9.72076 1.23776 10.0167 1.59149 10.2187 1.98079C10.4206 2.37009 10.5245 2.78733 10.5245 3.20871V4.49219H11.3282ZM6.50632 1.28348C5.86689 1.28348 5.25366 1.48632 4.80152 1.84737C4.34939 2.20842 4.09538 2.6981 4.09538 3.20871V4.49219H8.91725V3.20871C8.91725 2.6981 8.66324 2.20842 8.21111 1.84737C7.75897 1.48632 7.14574 1.28348 6.50632 1.28348Z" fill="#D4DCE2"/>
</svg>
