<svg width="12" height="12" viewBox="0 0 12 12" fill="none" xmlns="http://www.w3.org/2000/svg">
<path d="M6.0002 5.33438C7.47324 5.33438 8.66738 4.14023 8.66738 2.66719C8.66738 1.19414 7.47324 0 6.0002 0C4.52715 0 3.33301 1.19414 3.33301 2.66719C3.33301 4.14023 4.52715 5.33438 6.0002 5.33438Z" fill="#D4DCE2"/>
<path d="M11.7609 9.33282C10.4414 8.02267 8.45156 7.20001 5.99766 7.20001C3.54375 7.20001 1.55859 8.02501 0.239062 9.33282C0.152344 9.4172 0 9.6047 0 9.84142C0 10.05 0 12 0 12H12C12 12 12 10.0524 12 9.84142C12 9.6047 11.8453 9.4172 11.7609 9.33282Z" fill="#D4DCE2"/>
</svg>
